<?xml version="1.0" standalone="no"?>
<!DOCTYPE svg PUBLIC "-//W3C//DTD SVG 20010904//EN"
 "http://www.w3.org/TR/2001/REC-SVG-20010904/DTD/svg10.dtd">
<svg version="1.0" xmlns="http://www.w3.org/2000/svg"
 width="50.000000pt" height="50.000000pt" viewBox="0 0 50.000000 50.000000"
 preserveAspectRatio="xMidYMid meet">

<g transform="translate(0.000000,50.000000) scale(0.100000,-0.100000)"
fill="rgba(0,0,0,.54)" stroke="none">
<path d="M205 385 c-16 -15 -25 -36 -25 -55 0 -38 39 -80 75 -80 36 0 75 42
75 80 0 38 -39 80 -75 80 -14 0 -37 -11 -50 -25z"/>
<path d="M197 206 c-61 -23 -103 -69 -91 -100 5 -13 24 -16 105 -16 97 0 99 0
99 24 0 13 9 35 20 49 20 25 20 26 2 36 -35 18 -96 21 -135 7z"/>
<path d="M340 160 c-40 -40 -11 -110 45 -110 32 0 65 33 65 65 0 32 -33 65
-65 65 -14 0 -34 -9 -45 -20z m68 -41 c15 -1 15 -2 0 -6 -10 -2 -19 -12 -19
-21 -1 -15 -2 -15 -6 1 -2 9 -12 18 -21 18 -15 1 -15 2 1 6 9 2 18 12 18 21 1
15 2 15 6 0 2 -10 12 -19 21 -19z"/>
</g>
</svg>
