<?xml version="1.0" standalone="no"?>
<!DOCTYPE svg PUBLIC "-//W3C//DTD SVG 20010904//EN"
 "http://www.w3.org/TR/2001/REC-SVG-20010904/DTD/svg10.dtd">
<svg version="1.0" xmlns="http://www.w3.org/2000/svg"
 width="48.000000pt" height="48.000000pt" viewBox="0 0 48.000000 48.000000"
 preserveAspectRatio="xMidYMid meet">

<g transform="translate(0.000000,48.000000) scale(0.100000,-0.100000)"
fill="rgba(0,0,0,.54)" stroke="none">
<path d="M92 468 c-7 -7 -12 -38 -12 -70 0 -49 -3 -58 -18 -58 -32 0 -42 -22
-42 -90 0 -68 10 -90 42 -90 13 0 18 -8 18 -28 0 -45 16 -52 115 -52 79 0 92
2 103 20 12 19 10 20 -83 20 -87 0 -95 2 -95 19 0 18 10 20 118 25 64 3 135 7
157 8 l40 3 3 72 c3 64 0 74 -18 85 -11 7 -20 21 -20 31 0 10 -22 40 -50 67
l-49 50 -99 0 c-63 0 -102 -4 -110 -12z m190 -65 c3 -36 5 -38 41 -41 20 -2
37 -7 37 -13 0 -5 -52 -9 -120 -9 l-120 0 0 50 0 50 79 0 80 0 3 -37z m-164
-150 c-3 -43 -5 -48 -27 -48 -13 0 -26 6 -29 14 -3 9 1 11 17 6 19 -6 21 -3
21 34 0 23 5 41 11 41 6 0 9 -19 7 -47z m80 28 c3 -10 -2 -11 -19 -7 l-24 7
23 -20 c30 -26 25 -56 -7 -56 -14 0 -26 6 -29 14 -3 9 1 11 17 6 27 -8 27 2 0
23 -13 12 -18 23 -13 35 8 21 45 20 52 -2z m91 5 c31 -37 -9 -103 -46 -80 -37
23 -24 94 17 94 10 0 23 -6 29 -14z m74 -18 l16 -33 0 33 c1 53 21 36 21 -18
0 -59 -18 -67 -43 -17 l-16 32 0 -32 c-1 -54 -21 -37 -21 17 0 59 18 67 43 18z"/>
<path d="M247 274 c-4 -4 -7 -18 -7 -31 0 -17 6 -23 21 -23 16 0 20 5 17 27
-3 26 -18 39 -31 27z"/>
<path d="M367 134 c-4 -4 -7 -18 -7 -31 0 -14 -6 -23 -15 -23 -22 0 -18 -21
10 -55 l25 -30 25 30 c28 34 32 55 11 55 -8 0 -16 12 -18 27 -3 26 -18 39 -31
27z"/>
</g>
</svg>
