<?xml version="1.0" standalone="no"?>
<!DOCTYPE svg PUBLIC "-//W3C//DTD SVG 20010904//EN"
 "http://www.w3.org/TR/2001/REC-SVG-20010904/DTD/svg10.dtd">
<svg version="1.0" xmlns="http://www.w3.org/2000/svg"
 width="48.000000pt" height="48.000000pt" viewBox="0 0 48.000000 48.000000"
 preserveAspectRatio="xMidYMid meet">

<g transform="translate(0.000000,48.000000) scale(0.100000,-0.100000)"
fill="rgba(0,0,0,.54)" stroke="none">
<path d="M112 428 c-7 -7 -12 -38 -12 -70 0 -49 -3 -58 -18 -58 -32 0 -42 -22
-42 -90 0 -68 10 -90 42 -90 13 0 18 -8 18 -28 0 -45 16 -52 114 -52 88 0 89
0 71 20 -14 16 -31 20 -82 20 -56 0 -63 2 -63 20 0 19 7 20 100 20 l100 0 0
28 c0 36 16 52 52 52 l28 0 0 73 0 73 -48 47 -48 47 -100 0 c-64 0 -104 -4
-112 -12z m188 -68 l0 -40 40 0 c22 0 40 -4 40 -10 0 -6 -47 -10 -120 -10
l-120 0 0 50 0 50 80 0 80 0 0 -40z m-150 -115 c16 -20 5 -32 -14 -16 -19 16
-36 6 -36 -19 0 -25 17 -35 36 -19 19 16 30 4 14 -16 -27 -32 -70 -11 -70 35
0 46 43 67 70 35z m88 -4 c3 -10 -2 -11 -19 -7 l-24 7 23 -20 c30 -26 25 -56
-7 -56 -14 0 -26 6 -29 14 -3 9 1 11 17 6 27 -8 27 2 0 23 -13 12 -18 23 -13
35 8 21 45 20 52 -2z m48 -6 c7 -30 24 -33 24 -6 0 19 17 38 26 29 2 -3 -2
-24 -9 -48 -20 -70 -40 -63 -61 23 -4 16 -2 27 4 27 5 0 12 -11 16 -25z"/>
<path d="M380 120 c0 -38 -1 -40 -32 -40 l-33 0 43 -39 42 -39 42 39 43 39
-33 0 c-31 0 -32 2 -32 40 0 33 -3 40 -20 40 -17 0 -20 -7 -20 -40z"/>
</g>
</svg>
