<?xml version="1.0" standalone="no"?>
<!DOCTYPE svg PUBLIC "-//W3C//DTD SVG 20010904//EN"
 "http://www.w3.org/TR/2001/REC-SVG-20010904/DTD/svg10.dtd">
<svg version="1.0" xmlns="http://www.w3.org/2000/svg"
 width="48.000000pt" height="48.000000pt" viewBox="0 0 48.000000 48.000000"
 preserveAspectRatio="xMidYMid meet">

<g transform="translate(0.000000,48.000000) scale(0.100000,-0.100000)"
fill="#fff" stroke="none">
<path d="M39 433 c-11 -12 -14 -58 -14 -194 0 -158 2 -180 18 -196 16 -16 38
-18 197 -18 159 0 181 2 197 18 16 16 18 38 18 196 0 136 -3 182 -14 194 -12
15 -39 17 -201 17 -162 0 -189 -2 -201 -17z m306 -89 c32 -21 32 -37 0 -58
-31 -20 -49 -21 -41 0 4 11 0 15 -16 12 -49 -7 -49 -109 0 -116 16 -3 20 1 16
12 -8 21 10 20 41 0 32 -21 32 -37 0 -58 -29 -19 -48 -21 -43 -4 7 20 -58 38
-92 26 -35 -12 -92 -7 -97 9 -3 8 12 13 44 15 40 3 50 7 61 30 8 18 9 34 3 52
-9 21 -17 25 -57 28 -29 2 -49 8 -52 16 -3 11 11 13 64 12 86 -3 135 7 127 26
-7 19 12 18 42 -2z"/>
</g>
</svg>
