<?xml version="1.0" standalone="no"?>
<!DOCTYPE svg PUBLIC "-//W3C//DTD SVG 20010904//EN"
 "http://www.w3.org/TR/2001/REC-SVG-20010904/DTD/svg10.dtd">
<svg version="1.0" xmlns="http://www.w3.org/2000/svg"
 width="50.000000pt" height="50.000000pt" viewBox="0 0 50.000000 50.000000"
 preserveAspectRatio="xMidYMid meet">

<g transform="translate(0.000000,50.000000) scale(0.100000,-0.100000)"
fill="#000000" stroke="none">
<path d="M381 426 l-44 -45 -25 20 c-34 26 -56 24 -94 -10 -18 -15 -39 -26
-45 -24 -30 11 -7 -19 93 -117 70 -69 104 -98 102 -84 -1 11 9 35 25 53 32 38
34 60 8 92 l-20 24 47 47 c61 63 45 75 -17 14 -27 -26 -51 -44 -54 -39 -4 6
14 29 38 53 25 24 45 48 45 52 0 17 -18 6 -59 -36z m-39 -83 c32 -32 58 -64
58 -72 0 -8 -12 -28 -27 -43 l-27 -28 -73 72 -73 72 27 28 c15 15 34 28 42 28
9 0 41 -26 73 -57z"/>
<path d="M133 328 c2 -7 -9 -28 -24 -46 -34 -38 -36 -61 -10 -93 l20 -24 -47
-47 c-60 -62 -46 -76 16 -15 27 26 51 44 55 40 4 -4 -14 -28 -40 -55 -61 -62
-47 -76 15 -16 l47 47 24 -20 c32 -26 54 -24 92 8 18 16 42 26 53 25 14 -2
-15 32 -84 102 -98 100 -128 123 -117 94z m140 -200 c-15 -15 -34 -28 -42 -28
-20 0 -131 110 -131 129 0 8 12 28 27 43 l27 28 73 -72 73 -72 -27 -28z"/>
</g>
</svg>
