<?xml version="1.0" standalone="no"?>
<!DOCTYPE svg PUBLIC "-//W3C//DTD SVG 20010904//EN"
 "http://www.w3.org/TR/2001/REC-SVG-20010904/DTD/svg10.dtd">
<svg version="1.0" xmlns="http://www.w3.org/2000/svg"
 width="50.000000pt" height="50.000000pt" viewBox="0 0 50.000000 50.000000"
 preserveAspectRatio="xMidYMid meet">

<g transform="translate(0.000000,50.000000) scale(0.100000,-0.100000)"
fill="#000000" stroke="none">
<path d="M266 440 c-21 -19 -40 -28 -50 -24 -24 9 -19 -9 9 -36 l25 -24 -30
-31 c-39 -41 -26 -55 15 -15 l31 30 37 -38 37 -38 -30 -29 c-16 -15 -27 -32
-24 -37 4 -6 21 4 38 21 l32 31 24 -25 c27 -28 45 -33 36 -9 -4 10 5 29 24 50
35 40 37 63 11 95 -19 24 -19 24 1 46 28 30 14 43 -15 15 -31 -29 -44 -16 -15
15 28 29 15 43 -15 15 -22 -20 -22 -20 -46 -1 -32 26 -55 24 -95 -11z m126
-47 c32 -32 58 -65 58 -73 0 -9 -14 -29 -30 -45 l-31 -29 -71 72 -72 71 29 31
c16 16 36 30 44 30 9 0 41 -26 73 -57z"/>
<path d="M84 284 c4 -10 -5 -29 -24 -50 -35 -40 -37 -63 -11 -95 19 -24 19
-24 -1 -46 -28 -30 -14 -43 15 -15 31 29 44 16 15 -15 -28 -29 -15 -43 15 -15
22 20 22 20 46 1 32 -26 55 -24 95 11 21 19 40 28 50 24 34 -13 13 15 -87 114
-99 99 -126 119 -113 86z m101 -104 l69 -70 -29 -30 c-16 -16 -36 -30 -44 -30
-20 0 -131 110 -131 129 0 14 48 71 60 71 3 0 37 -31 75 -70z"/>
</g>
</svg>
