<?xml version="1.0" standalone="no"?>
<!DOCTYPE svg PUBLIC "-//W3C//DTD SVG 20010904//EN"
 "http://www.w3.org/TR/2001/REC-SVG-20010904/DTD/svg10.dtd">
<svg version="1.0" xmlns="http://www.w3.org/2000/svg"
 width="50.000000pt" height="50.000000pt" viewBox="0 0 50.000000 50.000000"
 preserveAspectRatio="xMidYMid meet">

<g transform="translate(0.000000,50.000000) scale(0.100000,-0.100000)"
fill="#ffc107" stroke="none">
<path d="M208 398 c-18 -18 -38 -59 -38 -79 0 -5 36 -9 81 -9 l81 0 -6 26 c-7
28 -34 73 -45 75 -43 6 -57 3 -73 -13z"/>
<path d="M156 391 c-16 -11 -38 -33 -48 -50 l-20 -31 36 0 c23 0 36 5 36 13 0
7 9 29 19 50 21 42 18 45 -23 18z"/>
<path d="M321 373 c10 -21 19 -43 19 -50 0 -8 13 -13 35 -13 32 0 35 2 26 19
-12 21 -78 81 -90 81 -5 0 0 -17 10 -37z"/>
<path d="M84 286 c-3 -8 -4 -29 -2 -48 3 -29 7 -33 36 -36 l32 -3 0 50 c0 50
-1 51 -30 51 -17 0 -33 -6 -36 -14z"/>
<path d="M160 250 l0 -50 90 0 90 0 0 50 0 50 -90 0 -90 0 0 -50z"/>
<path d="M350 250 l0 -51 33 3 c31 3 32 5 32 48 0 43 -1 45 -32 48 l-33 3 0
-51z"/>
<path d="M99 171 c12 -21 78 -81 90 -81 5 0 0 17 -10 37 -10 21 -19 43 -19 50
0 8 -13 13 -35 13 -32 0 -35 -2 -26 -19z"/>
<path d="M174 164 c8 -31 35 -74 47 -75 5 -1 18 -1 29 -1 11 0 24 0 29 1 12 1
39 44 47 75 l6 26 -82 0 -82 0 6 -26z"/>
<path d="M340 177 c0 -7 -9 -29 -19 -50 -10 -20 -15 -37 -10 -37 12 0 78 60
90 81 9 17 6 19 -26 19 -22 0 -35 -5 -35 -13z"/>
</g>
</svg>
