<?xml version="1.0" standalone="no"?>
<!DOCTYPE svg PUBLIC "-//W3C//DTD SVG 20010904//EN"
 "http://www.w3.org/TR/2001/REC-SVG-20010904/DTD/svg10.dtd">
<svg version="1.0" xmlns="http://www.w3.org/2000/svg"
 width="50.000000pt" height="50.000000pt" viewBox="0 0 50.000000 50.000000"
 preserveAspectRatio="xMidYMid meet">

<g transform="translate(0.000000,50.000000) scale(0.100000,-0.100000)"
fill="#dc3545" stroke="none">
<path d="M196 478 c5 -13 8 -36 9 -53 0 -27 -4 -31 -35 -35 -30 -4 -35 -8 -32
-28 2 -13 -4 -39 -13 -58 -19 -41 -14 -63 15 -66 11 0 25 -1 32 -2 11 -1 36
34 62 88 18 38 30 18 21 -34 -7 -43 7 -54 30 -23 11 15 13 15 19 -5 6 -18 15
-22 47 -22 45 0 46 3 20 46 -14 23 -18 43 -14 72 4 33 2 42 -18 56 -32 22 -37
20 -42 -11 -3 -25 -4 -24 -6 7 -2 39 -15 61 -48 78 -37 20 -56 15 -47 -10z"/>
<path d="M4 206 c-3 -8 -4 -29 -2 -48 l3 -33 75 0 75 0 0 45 0 45 -73 3 c-56
2 -74 0 -78 -12z"/>
<path d="M184 206 c-3 -8 -4 -29 -2 -48 l3 -33 155 0 155 0 0 45 0 45 -153 3
c-125 2 -153 0 -158 -12z"/>
<path d="M4 86 c-3 -8 -4 -29 -2 -48 l3 -33 155 0 155 0 0 45 0 45 -153 3
c-125 2 -153 0 -158 -12z"/>
<path d="M344 86 c-3 -8 -4 -29 -2 -48 l3 -33 75 0 75 0 0 45 0 45 -73 3 c-56
2 -74 0 -78 -12z"/>
</g>
</svg>
