<?xml version="1.0" standalone="no"?>
<!DOCTYPE svg PUBLIC "-//W3C//DTD SVG 20010904//EN"
 "http://www.w3.org/TR/2001/REC-SVG-20010904/DTD/svg10.dtd">
<svg version="1.0" xmlns="http://www.w3.org/2000/svg"
 width="50.000000pt" height="50.000000pt" viewBox="0 0 50.000000 50.000000"
 preserveAspectRatio="xMidYMid meet">

<g transform="translate(0.000000,50.000000) scale(0.100000,-0.100000)"
fill="#007bff" stroke="none">
<path d="M191 454 c-15 -19 -21 -41 -21 -76 0 -30 -8 -65 -21 -91 -40 -77 -42
-96 -11 -122 15 -13 34 -35 41 -49 8 -14 20 -26 28 -26 23 0 14 28 -17 50 -35
25 -37 45 -9 109 18 43 25 49 56 54 43 7 57 -6 75 -72 7 -24 17 -44 23 -46 5
-1 25 -7 44 -13 l33 -11 -5 36 c-4 20 -22 62 -41 93 -20 31 -38 76 -42 99 -9
59 -37 91 -79 91 -24 0 -39 -7 -54 -26z m37 -59 c3 -11 0 -15 -8 -10 -7 4 -16
1 -21 -6 -7 -11 -9 -9 -9 7 0 37 31 45 38 9z m50 -6 c2 -17 0 -20 -6 -10 -6 7
-15 10 -21 7 -12 -8 -15 16 -4 28 12 12 28 0 31 -25z m-19 -38 c11 -7 9 -11
-8 -21 -17 -9 -26 -9 -37 1 -25 21 15 39 45 20z"/>
<path d="M105 149 c-4 -6 -17 -14 -28 -18 -16 -6 -22 -17 -23 -44 -1 -36 0
-37 54 -52 90 -27 104 -6 51 77 -32 49 -43 56 -54 37z"/>
<path d="M342 148 c7 -19 38 -22 38 -4 0 10 -9 16 -21 16 -12 0 -19 -5 -17
-12z"/>
<path d="M316 83 c-10 -74 9 -81 80 -32 45 31 45 31 27 52 -10 12 -19 23 -19
25 -1 2 -11 -3 -23 -10 -16 -10 -25 -10 -40 -1 -17 11 -19 8 -25 -34z"/>
<path d="M210 53 c0 -8 15 -13 40 -13 25 0 40 5 40 13 0 7 -15 12 -40 12 -25
0 -40 -5 -40 -12z"/>
</g>
</svg>
