<?xml version="1.0" standalone="no"?>
<!DOCTYPE svg PUBLIC "-//W3C//DTD SVG 20010904//EN"
 "http://www.w3.org/TR/2001/REC-SVG-20010904/DTD/svg10.dtd">
<svg version="1.0" xmlns="http://www.w3.org/2000/svg"
 width="50.000000pt" height="50.000000pt" viewBox="0 0 60.000000 60.000000"
 preserveAspectRatio="xMidYMid meet">

<g transform="translate(0.000000,60.000000) scale(0.100000,-0.100000)"
fill="#28a745" stroke="none">
<path d="M0 360 l0 -229 78 -3 77 -3 3 -57 3 -58 139 0 139 0 3 58 3 57 77 3
78 3 0 229 0 230 -300 0 -300 0 0 -230z m550 0 l0 -179 -77 -3 -78 -3 -3 -58
-3 -57 -89 0 -89 0 -3 58 -3 57 -77 3 -78 3 0 179 0 180 250 0 250 0 0 -180z"/>
<path d="M70 360 l0 -160 68 0 c40 0 73 -5 80 -12 7 -7 12 -34 12 -60 l0 -48
70 0 70 0 0 48 c0 26 5 53 12 60 7 7 40 12 80 12 l68 0 0 160 c0 100 -4 160
-10 160 -5 0 -10 -22 -10 -50 0 -49 -1 -50 -30 -50 -29 0 -30 1 -30 50 0 38
-4 50 -15 50 -11 0 -15 -12 -15 -50 0 -49 -1 -50 -30 -50 -29 0 -30 1 -30 50
0 38 -4 50 -15 50 -11 0 -15 -12 -15 -50 0 -49 -1 -50 -30 -50 -29 0 -30 1
-30 50 0 38 -4 50 -15 50 -11 0 -15 -12 -15 -50 0 -49 -1 -50 -30 -50 -29 0
-30 1 -30 50 0 38 -4 50 -15 50 -11 0 -15 -12 -15 -50 0 -49 -1 -50 -30 -50
-29 0 -30 1 -30 50 0 28 -4 50 -10 50 -6 0 -10 -60 -10 -160z"/>
<path d="M110 480 c0 -22 5 -40 10 -40 6 0 10 18 10 40 0 22 -4 40 -10 40 -5
0 -10 -18 -10 -40z"/>
<path d="M200 480 c0 -22 5 -40 10 -40 6 0 10 18 10 40 0 22 -4 40 -10 40 -5
0 -10 -18 -10 -40z"/>
<path d="M290 480 c0 -22 5 -40 10 -40 6 0 10 18 10 40 0 22 -4 40 -10 40 -5
0 -10 -18 -10 -40z"/>
<path d="M380 480 c0 -22 5 -40 10 -40 6 0 10 18 10 40 0 22 -4 40 -10 40 -5
0 -10 -18 -10 -40z"/>
<path d="M470 480 c0 -22 5 -40 10 -40 6 0 10 18 10 40 0 22 -4 40 -10 40 -5
0 -10 -18 -10 -40z"/>
</g>
</svg>
