<?xml version="1.0" standalone="no"?>
<!DOCTYPE svg PUBLIC "-//W3C//DTD SVG 20010904//EN"
 "http://www.w3.org/TR/2001/REC-SVG-20010904/DTD/svg10.dtd">
<svg version="1.0" xmlns="http://www.w3.org/2000/svg"
 width="50.000000pt" height="50.000000pt" viewBox="0 0 50.000000 50.000000"
 preserveAspectRatio="xMidYMid meet">

<g transform="translate(0.000000,50.000000) scale(0.100000,-0.100000)"
fill="#007bff" stroke="none">
<path d="M155 456 c-60 -28 -87 -56 -114 -116 -36 -79 -19 -183 42 -249 33
-36 115 -71 167 -71 52 0 134 35 167 71 34 37 63 110 63 159 0 52 -35 134 -71
167 -37 34 -110 63 -159 63 -27 0 -65 -10 -95 -24z m128 -54 c30 -31 25 -53
-5 -25 -17 15 -18 14 -18 -30 0 -26 -4 -47 -10 -47 -5 0 -10 21 -10 47 0 44
-1 45 -18 30 -30 -28 -35 -6 -5 25 15 15 30 28 33 28 3 0 18 -13 33 -28z
m-107 -181 c-31 -32 -59 -32 -30 0 17 18 16 19 -29 19 -26 0 -47 5 -47 10 0 6
21 10 47 10 44 0 45 1 30 18 -29 32 -4 34 27 3 l30 -31 -28 -29z m178 58 c-17
-18 -16 -19 29 -19 26 0 47 -4 47 -10 0 -5 -21 -10 -47 -10 -45 0 -46 -1 -29
-19 29 -32 1 -32 -29 -1 l-29 30 29 30 c30 31 58 31 29 -1z m-94 -126 c0 -45
1 -46 19 -29 32 29 32 1 1 -29 l-30 -29 -30 29 c-31 30 -31 58 1 29 18 -17 19
-16 19 29 0 26 5 47 10 47 6 0 10 -21 10 -47z"/>
</g>
</svg>
