<?xml version="1.0" standalone="no"?>
<!DOCTYPE svg PUBLIC "-//W3C//DTD SVG 20010904//EN"
 "http://www.w3.org/TR/2001/REC-SVG-20010904/DTD/svg10.dtd">
<svg version="1.0" xmlns="http://www.w3.org/2000/svg"
 width="50.000000pt" height="50.000000pt" viewBox="0 0 50.000000 50.000000"
 preserveAspectRatio="xMidYMid meet">

<g transform="translate(0.000000,50.000000) scale(0.100000,-0.100000)"
fill="#ffc107" stroke="none">
<path d="M56 444 c-24 -23 -24 -365 0 -388 23 -24 365 -24 388 0 24 23 24 365
0 388 -23 24 -365 24 -388 0z m329 -64 l29 -30 -32 -32 c-33 -34 -58 -32 -27
2 18 20 18 20 -33 20 -29 0 -52 5 -52 10 0 6 23 10 52 10 49 0 50 1 35 18 -38
42 -12 43 28 2z m-225 -7 c0 -3 -7 -15 -17 -25 -15 -17 -14 -18 35 -18 29 0
52 -4 52 -10 0 -5 -23 -10 -52 -10 -51 0 -51 0 -33 -20 31 -34 6 -36 -27 -2
l-32 32 29 30 c27 29 45 38 45 23z m225 -163 l29 -30 -32 -32 c-33 -34 -58
-32 -27 2 18 20 18 20 -33 20 -29 0 -52 5 -52 10 0 6 23 10 52 10 49 0 50 1
35 18 -38 42 -12 43 28 2z m-225 -7 c0 -3 -7 -15 -17 -25 -15 -17 -14 -18 35
-18 29 0 52 -4 52 -10 0 -5 -23 -10 -52 -10 -51 0 -51 0 -33 -20 31 -34 6 -36
-27 -2 l-32 32 29 30 c27 29 45 38 45 23z"/>
</g>
</svg>
