<?xml version="1.0" standalone="no"?>
<!DOCTYPE svg PUBLIC "-//W3C//DTD SVG 20010904//EN"
 "http://www.w3.org/TR/2001/REC-SVG-20010904/DTD/svg10.dtd">
<svg version="1.0" xmlns="http://www.w3.org/2000/svg"
 width="50.000000pt" height="50.000000pt" viewBox="0 0 50.000000 50.000000"
 preserveAspectRatio="xMidYMid meet">

<g transform="translate(0.000000,50.000000) scale(0.100000,-0.100000)"
fill="#007bff" stroke="none">
<path d="M60 498 c0 -2 -11 -68 -25 -148 -14 -80 -25 -151 -25 -157 0 -10 55
-13 240 -13 168 0 240 3 240 11 0 27 -42 266 -50 287 -9 22 -12 22 -195 22
-102 0 -185 -1 -185 -2z m259 -94 c40 -16 71 -50 71 -79 0 -77 -115 -128 -204
-91 -72 30 -96 90 -55 135 46 50 119 63 188 35z"/>
<path d="M225 340 c-4 -7 -3 -16 3 -22 14 -14 47 -6 47 12 0 18 -40 26 -50 10z"/>
<path d="M4 147 c-3 -8 -4 -43 -2 -78 l3 -64 245 0 245 0 0 75 0 75 -243 3
c-198 2 -243 0 -248 -11z m412 -58 c10 -17 -13 -36 -27 -22 -12 12 -4 33 11
33 5 0 12 -5 16 -11z"/>
</g>
</svg>
