<?xml version="1.0" standalone="no"?>
<!DOCTYPE svg PUBLIC "-//W3C//DTD SVG 20010904//EN"
 "http://www.w3.org/TR/2001/REC-SVG-20010904/DTD/svg10.dtd">
<svg version="1.0" xmlns="http://www.w3.org/2000/svg"
 width="50.000000pt" height="50.000000pt" viewBox="0 0 50.000000 50.000000"
 preserveAspectRatio="xMidYMid meet">

<g transform="translate(0.000000,50.000000) scale(0.100000,-0.100000)"
fill="#007bff" stroke="none">
<path d="M415 455 c-5 -2 -49 -9 -97 -15 l-88 -12 0 -84 0 -84 115 0 115 0 0
100 c0 104 -3 110 -45 95z"/>
<path d="M145 415 c-5 -2 -31 -6 -57 -10 l-48 -6 0 -70 0 -69 85 0 85 0 0 80
0 80 -27 -1 c-16 0 -32 -2 -38 -4z"/>
<path d="M40 171 l0 -69 33 -6 c17 -3 56 -8 85 -12 l52 -7 0 82 0 81 -85 0
-85 0 0 -69z"/>
<path d="M230 156 l0 -84 83 -11 c45 -7 97 -14 115 -18 l32 -5 0 101 0 101
-115 0 -115 0 0 -84z"/>
</g>
</svg>
